<svg xmlns="http://www.w3.org/2000/svg" id="Filled_expand" height="512" viewBox="0 0 512 512" width="512" data-name="Filled expand"><g><g><g><rect fill="#57cee6" height="464" rx="10" width="336" x="24" y="24"></rect><path d="m368 224h-16v-190a2 2 0 0 0 -2-2h-316a2 2 0 0 0 -2 2v46h-16v-46a18.021 18.021 0 0 1 18-18h316a18.021 18.021 0 0 1 18 18z"></path><path d="m320 496h-286a18.021 18.021 0 0 1 -18-18v-382h16v382a2 2 0 0 0 2 2h286z"></path><path d="m56 56h272v368h-272z" fill="#ecfbf9"></path><path d="m248 432h-192a8 8 0 0 1 -8-8v-368a8 8 0 0 1 8-8h272a8 8 0 0 1 8 8v168h-16v-160h-256v352h184z"></path><path d="m168 448h48v16h-48z"></path></g><g><path d="m88 88h208v136h-208z" fill="#fa5d3f"></path><path d="m296 232h-208a8 8 0 0 1 -8-8v-136a8 8 0 0 1 8-8h208a8 8 0 0 1 8 8v136a8 8 0 0 1 -8 8zm-200-16h192v-120h-192z"></path><path d="m184 112h16v88h-16z"></path><path d="m208 128h16v72h-16z"></path><path d="m232 144h16v56h-16z"></path><path d="m256 160h16v40h-16z"></path><path d="m160 128h16v72h-16z"></path><path d="m136 144h16v56h-16z"></path><path d="m112 160h16v40h-16z"></path></g><g><path d="m88 256h96v48h-96z" fill="#fac850"></path><path d="m184 312h-96a8 8 0 0 1 -8-8v-48a8 8 0 0 1 8-8h96a8 8 0 0 1 8 8v48a8 8 0 0 1 -8 8zm-88-16h80v-32h-80z"></path><path d="m88 336h96v48h-96z" fill="#fac850"></path><path d="m184 392h-96a8 8 0 0 1 -8-8v-48a8 8 0 0 1 8-8h96a8 8 0 0 1 8 8v48a8 8 0 0 1 -8 8zm-88-16h80v-32h-80z"></path><path d="m208 248h56v16h-56z"></path><path d="m208 280h32v16h-32z"></path><path d="m208 328h16v16h-16z"></path><path d="m208 360h16v16h-16z"></path></g></g><g><path d="m488 392v-48h-27.024a95.412 95.412 0 0 0 -10.268-24.767l19.115-19.115-33.941-33.941-19.115 19.115a95.426 95.426 0 0 0 -24.767-10.268v-27.024h-48v27.024a95.426 95.426 0 0 0 -24.767 10.268l-19.115-19.115-33.941 33.941 19.115 19.115a95.412 95.412 0 0 0 -10.268 24.767h-27.024v48h27.024a95.412 95.412 0 0 0 10.268 24.767l-19.115 19.115 33.941 33.941 19.115-19.115a95.426 95.426 0 0 0 24.767 10.268v27.024h48v-27.024a95.426 95.426 0 0 0 24.767-10.268l19.115 19.115 33.941-33.941-19.115-19.115a95.412 95.412 0 0 0 10.268-24.767z" fill="#fa5d3f"></path><path d="m392 496h-48a8 8 0 0 1 -8-8v-21.018a103.446 103.446 0 0 1 -15.359-6.368l-14.867 14.866a8 8 0 0 1 -11.313 0l-33.941-33.94a8 8 0 0 1 0-11.314l14.866-14.867a103.446 103.446 0 0 1 -6.368-15.359h-21.018a8 8 0 0 1 -8-8v-48a8 8 0 0 1 8-8h21.018a103.446 103.446 0 0 1 6.368-15.359l-14.866-14.867a8 8 0 0 1 0-11.314l33.941-33.94a8 8 0 0 1 11.313 0l14.867 14.866a103.446 103.446 0 0 1 15.359-6.368v-21.018a8 8 0 0 1 8-8h48a8 8 0 0 1 8 8v21.018a103.446 103.446 0 0 1 15.359 6.368l14.867-14.866a8 8 0 0 1 11.313 0l33.941 33.94a8 8 0 0 1 0 11.314l-14.866 14.867a103.446 103.446 0 0 1 6.368 15.359h21.018a8 8 0 0 1 8 8v16h-16v-8h-19.024a8 8 0 0 1 -7.748-6.006 87.439 87.439 0 0 0 -9.407-22.692 8 8 0 0 1 1.231-9.727l13.458-13.458-22.628-22.627-13.458 13.459a8 8 0 0 1 -9.727 1.23 87.377 87.377 0 0 0 -22.691-9.407 8 8 0 0 1 -6.006-7.748v-19.024h-32v19.024a8 8 0 0 1 -6.006 7.748 87.377 87.377 0 0 0 -22.691 9.407 8 8 0 0 1 -9.727-1.23l-13.458-13.459-22.628 22.627 13.458 13.458a8 8 0 0 1 1.231 9.727 87.439 87.439 0 0 0 -9.407 22.692 8 8 0 0 1 -7.748 6.006h-19.024v32h19.024a8 8 0 0 1 7.748 6.006 87.439 87.439 0 0 0 9.407 22.692 8 8 0 0 1 -1.231 9.727l-13.458 13.458 22.628 22.627 13.458-13.459a8 8 0 0 1 9.727-1.23 87.377 87.377 0 0 0 22.691 9.407 8 8 0 0 1 6.006 7.748v19.024h32v-19.024a8 8 0 0 1 6.006-7.748 87.377 87.377 0 0 0 22.691-9.407 8 8 0 0 1 9.727 1.23l13.458 13.459 22.628-22.627-13.458-13.458a8 8 0 0 1 -1.231-9.727 87.439 87.439 0 0 0 9.407-22.692 8 8 0 0 1 7.748-6.006h19.024v-8h16v16a8 8 0 0 1 -8 8h-21.018a103.446 103.446 0 0 1 -6.368 15.359l14.866 14.867a8 8 0 0 1 0 11.314l-33.941 33.94a8 8 0 0 1 -11.313 0l-14.867-14.866a103.446 103.446 0 0 1 -15.359 6.368v21.018a8 8 0 0 1 -8 8z"></path><circle cx="368" cy="368" fill="#fffdfa" r="56"></circle><path d="m368 432a64 64 0 1 1 64-64 64.072 64.072 0 0 1 -64 64zm0-112a48 48 0 1 0 48 48 48.054 48.054 0 0 0 -48-48z"></path></g></g></svg>