<svg xmlns="http://www.w3.org/2000/svg" id="Capa_1" height="512" viewBox="0 0 512.003 512.003" width="512"><g><g><path d="m209.459 381.041v30.597c0 11.701-5.607 22.566-14.816 28.709l-22.243 14.838h167.204l-22.243-14.838c-9.209-6.143-14.816-17.008-14.816-28.709v-30.597c-30.61 0-62.478 0-93.086 0z" fill="#b1dbfc"></path><path d="m209.459 381.041v30.598c0 11.701-5.607 22.566-14.816 28.709l-22.244 14.838h53.968l.469-.313c9.209-6.143 14.816-17.008 14.816-28.709v-21.184c0-5.2 4.215-9.415 9.415-9.415h51.476v-14.525h-93.084z" fill="#8bcaff"></path><path d="m355.168 454.111h-198.335c-5.523 0-9.999 4.477-9.999 10v11.197c0 5.523 4.477 10 9.999 10h198.335c5.522 0 9.999-4.477 9.999-10v-11.197c.001-5.523-4.476-10-9.999-10z" fill="#dfebfa"></path><path d="m202.253 475.308v-11.197c0-5.523 4.477-10 9.999-10h-55.419c-5.523 0-9.999 4.477-9.999 10v11.197c0 5.523 4.477 10 9.999 10h55.419c-5.522-.001-9.999-4.477-9.999-10z" fill="#b1dbfc"></path><g><g><path d="m475.683 26.727h-439.364c-15.891 0-28.82 12.928-28.82 28.82v297.995c0 15.891 12.928 28.82 28.82 28.82h439.364c15.891 0 28.82-12.928 28.82-28.82v-297.996c0-15.891-12.929-28.819-28.82-28.819z" fill="#695d67"></path></g></g><path d="m40.835 353.541v-297.995c0-15.891 12.928-28.82 28.819-28.82h-33.335c-15.891 0-28.82 12.928-28.82 28.82v297.995c0 15.891 12.928 28.82 28.82 28.82h33.336c-15.892 0-28.82-12.929-28.82-28.82z" fill="#554e56"></path><g><path d="m38.695 93.011v2 252.007c0 2.291 1.856 4.147 4.147 4.147h426.318c2.29 0 4.147-1.856 4.147-4.147 0-6.718 0-180.788 0-254.007z" fill="#dfebfa"></path></g><path d="m68.697 347.018v-252.007-2h-30.002v2 252.007c0 2.291 1.856 4.147 4.147 4.147h30.002c-2.291 0-4.147-1.856-4.147-4.147z" fill="#b1dbfc"></path><path d="m469.16 57.923h-386.43v37.088h390.577c0-17.359 0-29.451 0-32.942 0-2.29-1.857-4.146-4.147-4.146z" fill="#5cb3f8"></path><path d="m83.73 57.923h-40.888c-2.29 0-4.147 1.856-4.147 4.147v32.942h45.035z" fill="#ff656f"></path><path d="m72.843 57.923h-30.001c-2.29 0-4.147 1.856-4.147 4.147v32.942h30.001v-32.943c0-2.29 1.856-4.146 4.147-4.146z" fill="#ff4756"></path><path d="m262.427 243.914c-5.546 2.779-12.078 2.779-17.623 0l-77.55-38.856v59.322c.983.837 2.028 1.609 3.191 2.236 24.758 13.35 53.071 20.948 83.171 20.948s58.414-7.598 83.171-20.948c1.163-.627 2.208-1.399 3.191-2.236v-59.322z" fill="#6e60b8"></path><path d="m203.323 223.131-36.07-18.073v59.322c.983.837 2.028 1.609 3.191 2.236 10.376 5.595 21.384 10.164 32.88 13.603v-57.088z" fill="#6353b2"></path><path d="m336.787 263.616c-24.758 13.35-53.071 20.948-83.171 20.948s-58.414-7.598-83.171-20.948c-1.163-.627-2.208-1.4-3.191-2.236v20.317c0 6.541 3.49 12.659 9.247 15.763 22.955 12.378 49.206 19.422 77.115 19.422s54.159-7.045 77.115-19.422c5.757-3.105 9.247-9.222 9.247-15.763v-20.317c-.983.837-2.029 1.61-3.191 2.236z" fill="#9790cc"></path><path d="m203.323 277.219c-11.495-3.438-22.503-8.008-32.88-13.603-1.163-.627-2.208-1.399-3.191-2.236v20.317c0 6.541 3.49 12.659 9.247 15.763 8.515 4.591 17.485 8.444 26.823 11.481v-31.722z" fill="#8479c2"></path><path d="m374.049 176.43-111.622-55.927c-5.546-2.779-12.078-2.779-17.623 0l-111.622 55.927c-6.404 3.209-6.404 12.349 0 15.557l111.622 55.927c5.546 2.779 12.078 2.779 17.623 0l111.622-55.927c6.404-3.209 6.404-12.348 0-15.557z" fill="#9790cc"></path><path d="m374.049 176.43-111.622-55.927c-5.546-2.779-12.078-2.779-17.623 0l-111.622 55.927c-6.404 3.209-6.404 12.349 0 15.557l111.622 55.927c5.546 2.779 12.078 2.779 17.623 0l111.622-55.927c6.404-3.209 6.404-12.348 0-15.557z" fill="#9790cc"></path><path d="m281.078 230.486-115.633-57.936c-3.957-1.983-5.534-6.148-4.771-9.895l-27.493 13.775c-6.404 3.209-6.404 12.349 0 15.557l111.622 55.927c5.546 2.779 12.078 2.779 17.623 0l30.996-15.53c-4.162.665-8.483.037-12.344-1.898z" fill="#8479c2"></path><g><path d="m399.11 315.599-8.865-35.822c-2.695 3.337-6.77 5.514-11.393 5.514-4.624 0-8.698-2.178-11.393-5.514l-8.865 35.822c-1.795 6.847 3.37 13.539 10.447 13.539h19.621c7.078 0 12.243-6.693 10.448-13.539z" fill="#fec458"></path></g><g><path d="m376.594 315.599 7.778-31.428c-1.702.708-3.557 1.12-5.52 1.12-4.624 0-8.698-2.177-11.392-5.514l-8.865 35.822c-1.795 6.847 3.37 13.539 10.447 13.539h18c-7.078 0-12.243-6.693-10.448-13.539z" fill="#f9ab49"></path></g><circle cx="253.615" cy="184.209" fill="#8479c2" r="14.703"></circle><circle cx="378.852" cy="272.588" fill="#ffe181" r="14.703"></circle><path d="m382.149 272.588c0-4.726 2.239-8.919 5.703-11.609-2.489-1.932-5.605-3.094-9-3.094-8.12 0-14.703 6.583-14.703 14.703s6.583 14.703 14.703 14.703c3.395 0 6.511-1.162 9-3.094-3.465-2.69-5.703-6.884-5.703-11.609z" fill="#fec458"></path></g><g><path d="m475.684 19.211h-439.365c-20.026 0-36.319 16.293-36.319 36.32v297.995c0 20.026 16.293 36.319 36.319 36.319h165.64v21.777c0 9.138-4.398 17.747-11.479 22.47l-18.744 12.504h-14.902c-9.649 0-17.499 7.851-17.499 17.5v11.196c0 9.649 7.85 17.5 17.499 17.5h81.667c4.143 0 7.5-3.357 7.5-7.5s-3.357-7.5-7.5-7.5h-81.667c-1.378 0-2.499-1.121-2.499-2.5v-11.196c0-1.379 1.121-2.5 2.499-2.5h198.335c1.378 0 2.499 1.121 2.499 2.5v11.196c0 1.379-1.121 2.5-2.499 2.5h-81.668c-4.143 0-7.5 3.357-7.5 7.5s3.357 7.5 7.5 7.5h81.668c9.649 0 17.499-7.851 17.499-17.5v-11.196c0-9.649-7.85-17.5-17.499-17.5h-14.903l-18.745-12.504c-7.08-4.723-11.478-13.333-11.478-22.47v-21.777h165.64c20.026 0 36.319-16.293 36.319-36.319v-297.995c.001-20.027-16.292-36.32-36.318-36.32zm-162.487 427.359.038.025h-114.468l.038-.025c11.367-7.582 18.154-20.647 18.154-34.948v-21.777h78.085v21.777c0 14.301 6.786 27.365 18.153 34.948zm183.806-93.045c0 11.756-9.563 21.319-21.319 21.319-11.908 0-427.915 0-439.364 0-11.756 0-21.319-9.563-21.319-21.319v-297.994c0-11.756 9.563-21.32 21.319-21.32h439.364c11.756 0 21.319 9.564 21.319 21.32z"></path><path d="m480.807 62.053c0-6.422-5.225-11.646-11.646-11.646-17.638 0-408.642 0-426.318 0-6.422 0-11.646 5.225-11.646 11.646v284.948c0 6.422 5.225 11.646 11.647 11.646h426.316c6.423 0 11.647-5.225 11.647-11.646v-124.973c0-4.143-3.357-7.5-7.5-7.5s-7.5 3.357-7.5 7.5v121.62h-419.612v-241.152h419.612v84.533c0 4.143 3.357 7.5 7.5 7.5s7.5-3.357 7.5-7.5c.001-3.764 0-122.995 0-124.976zm-404.577 25.443h-30.035v-22.089h30.035zm389.577 0h-374.577v-22.089h374.576v22.089z"></path><path d="m369.041 336.622h19.621c11.992 0 20.747-11.329 17.703-22.941v.001l-8-30.523c1.715-3.148 2.69-6.755 2.69-10.586 0-9.612-6.14-17.814-14.702-20.896v-67.483c0-6.17-3.427-11.72-8.942-14.484h-.001l-111.622-55.927c-7.622-3.818-16.723-3.817-24.343 0l-111.623 55.927c-11.916 5.971-11.915 22.998.001 28.968l29.932 14.997v68.008c0 9.409 5.053 17.979 13.188 22.364 50.275 27.109 111.18 27.051 161.349 0 8.135-4.386 13.188-12.955 13.188-22.364 0-8.176 0-60.107 0-68.008l23.875-11.962v49.964c-8.563 3.083-14.703 11.285-14.703 20.897 0 3.831.976 7.438 2.691 10.587l-8 30.521c-3.043 11.598 5.693 22.94 17.698 22.94zm-36.563-54.94c0 3.886-2.033 7.396-5.307 9.161-45.826 24.711-101.378 24.661-147.11 0-3.273-1.765-5.307-5.275-5.307-9.161v-7.482c49.801 23.781 107.892 23.796 157.724 0zm0-24.294c-49.152 26.181-108.499 26.219-157.724 0v-36.198l66.69 33.415c7.716 3.864 16.82 3.766 24.343 0 0-.001 0-.001 0-.001l66.69-33.414v36.198zm-78.863-95.398c-12.242 0-22.202 9.96-22.202 22.203s9.96 22.203 22.202 22.203c9.612 0 17.813-6.14 20.896-14.702h83.351l-98.794 49.499c-3.412 1.711-7.489 1.711-10.905.001l-111.621-55.927c-.894-.447-.903-1.696-.001-2.147l111.622-55.927c3.41-1.709 7.487-1.712 10.905 0l98.795 49.5h-83.352c-3.082-8.563-11.284-14.703-20.896-14.703zm7.203 22.203c0 3.972-3.231 7.203-7.203 7.203s-7.202-3.231-7.202-7.203 3.23-7.203 7.202-7.203 7.203 3.231 7.203 7.203zm118.035 81.176c3.972 0 7.202 3.231 7.202 7.203 0 4.058-3.501 7.203-7.202 7.203-3.574 0-7.203-2.963-7.203-7.203-.001-3.971 3.231-7.203 7.203-7.203zm-13.003 52.115 6.23-23.769c2.136.686 4.411 1.06 6.772 1.06s4.636-.374 6.772-1.06l6.23 23.769v.001c.55 2.096-1.027 4.137-3.193 4.137h-19.621c-2.166 0-3.74-2.041-3.19-4.138z"></path></g></g></svg>